<svg width="85" height="104" viewBox="0 0 85 104" fill="none" xmlns="http://www.w3.org/2000/svg">
<path d="M52.0227 44.1136C51.7955 41.6136 50.7841 39.6705 48.9886 38.2841C47.2159 36.875 44.6818 36.1705 41.3864 36.1705C39.2045 36.1705 37.3864 36.4545 35.9318 37.0227C34.4773 37.5909 33.3864 38.375 32.6591 39.375C31.9318 40.3523 31.5568 41.4773 31.5341 42.75C31.4886 43.7955 31.6932 44.7159 32.1477 45.5114C32.625 46.3068 33.3068 47.0114 34.1932 47.625C35.1023 48.2159 36.1932 48.7386 37.4659 49.1932C38.7386 49.6477 40.1705 50.0455 41.7614 50.3864L47.7614 51.75C51.2159 52.5 54.2614 53.5 56.8977 54.75C59.5568 56 61.7841 57.4886 63.5795 59.2159C65.3977 60.9432 66.7727 62.9318 67.7045 65.1818C68.6364 67.4318 69.1136 69.9545 69.1364 72.75C69.1136 77.1591 68 80.9432 65.7955 84.1023C63.5909 87.2614 60.4205 89.6818 56.2841 91.3636C52.1705 93.0455 47.2045 93.8864 41.3864 93.8864C35.5455 93.8864 30.4545 93.0114 26.1136 91.2614C21.7727 89.5114 18.3977 86.8523 15.9886 83.2841C13.5795 79.7159 12.3409 75.2045 12.2727 69.75H28.4318C28.5682 72 29.1705 73.875 30.2386 75.375C31.3068 76.875 32.7727 78.0114 34.6364 78.7841C36.5227 79.5568 38.7045 79.9432 41.1818 79.9432C43.4545 79.9432 45.3864 79.6364 46.9773 79.0227C48.5909 78.4091 49.8295 77.5568 50.6932 76.4659C51.5568 75.375 52 74.125 52.0227 72.7159C52 71.3977 51.5909 70.2727 50.7955 69.3409C50 68.3864 48.7727 67.5682 47.1136 66.8864C45.4773 66.1818 43.3864 65.5341 40.8409 64.9432L33.5455 63.2386C27.5 61.8523 22.7386 59.6136 19.2614 56.5227C15.7841 53.4091 14.0568 49.2045 14.0795 43.9091C14.0568 39.5909 15.2159 35.8068 17.5568 32.5568C19.8977 29.3068 23.1364 26.7727 27.2727 24.9545C31.4091 23.1364 36.125 22.2273 41.4205 22.2273C46.8295 22.2273 51.5227 23.1477 55.5 24.9886C59.5 26.8068 62.6023 29.3636 64.8068 32.6591C67.0114 35.9545 68.1364 39.7727 68.1818 44.1136H52.0227Z" fill="black"/>
<mask id="path-2-inside-1_24_5" fill="white">
<path d="M85 77C85 80.5457 83.9007 84.0567 81.7649 87.3325C79.6291 90.6082 76.4985 93.5847 72.552 96.0919C68.6055 98.5991 63.9204 100.588 58.764 101.945C53.6077 103.302 48.0811 104 42.5 104C36.9188 104 31.3923 103.302 26.2359 101.945C21.0796 100.588 16.3944 98.599 12.4479 96.0919C8.50144 93.5847 5.37091 90.6082 3.23509 87.3324C1.09928 84.0566 -9.80246e-06 80.5456 0 77L10.6948 77C10.6948 79.6534 11.5175 82.2809 13.1158 84.7323C14.7142 87.1838 17.0569 89.4113 20.0103 91.2875C22.9637 93.1638 26.4699 94.6521 30.3287 95.6676C34.1874 96.683 38.3233 97.2056 42.5 97.2056C46.6767 97.2056 50.8125 96.683 54.6713 95.6676C58.5301 94.6522 62.0363 93.1638 64.9897 91.2876C67.943 89.4113 70.2858 87.1838 71.8842 84.7324C73.4825 82.2809 74.3052 79.6534 74.3052 77H85Z"/>
</mask>
<path d="M85 77C85 80.5457 83.9007 84.0567 81.7649 87.3325C79.6291 90.6082 76.4985 93.5847 72.552 96.0919C68.6055 98.5991 63.9204 100.588 58.764 101.945C53.6077 103.302 48.0811 104 42.5 104C36.9188 104 31.3923 103.302 26.2359 101.945C21.0796 100.588 16.3944 98.599 12.4479 96.0919C8.50144 93.5847 5.37091 90.6082 3.23509 87.3324C1.09928 84.0566 -9.80246e-06 80.5456 0 77L10.6948 77C10.6948 79.6534 11.5175 82.2809 13.1158 84.7323C14.7142 87.1838 17.0569 89.4113 20.0103 91.2875C22.9637 93.1638 26.4699 94.6521 30.3287 95.6676C34.1874 96.683 38.3233 97.2056 42.5 97.2056C46.6767 97.2056 50.8125 96.683 54.6713 95.6676C58.5301 94.6522 62.0363 93.1638 64.9897 91.2876C67.943 89.4113 70.2858 87.1838 71.8842 84.7324C73.4825 82.2809 74.3052 79.6534 74.3052 77H85Z" fill="white" stroke="black" stroke-width="14" mask="url(#path-2-inside-1_24_5)"/>
</svg>
